HIERARCHY
ROOT Hips
{
	OFFSET 0.000000 0.000000 0.000000
	CHANNELS 6 Xposition Yposition Zposition Zrotation Yrotation Xrotation 
	JOINT LHipJoint
	{
		OFFSET 0.000000 0.000000 0.000000
		CHANNELS 3 Zrotation Yrotation Xrotation
		JOINT LeftUpLeg
		{
			OFFSET 1.363060 -1.794630 0.839290
			CHANNELS 3 Zrotation Yrotation Xrotation
			JOINT LeftLeg
			{
				OFFSET 2.448110 -6.726130 0.000000
				CHANNELS 3 Zrotation Yrotation Xrotation
				JOINT LeftFoot
				{
					OFFSET 2.562200 -7.039590 0.000000
					CHANNELS 3 Zrotation Yrotation Xrotation
					JOINT LeftToeBase
					{
						OFFSET 0.157640 -0.433110 2.322550
						CHANNELS 3 Zrotation Yrotation Xrotation
						End Site
						{
							OFFSET 0.000000 0.000000 0.000000
						}
					}
				}
			}
		}
	}
	JOINT RHipJoint
	{
		OFFSET 0.000000 0.000000 0.000000
		CHANNELS 3 Zrotation Yrotation Xrotation
		JOINT RightUpLeg
		{
			OFFSET -1.305520 -1.794630 0.839290
			CHANNELS 3 Zrotation Yrotation Xrotation
			JOINT RightLeg
			{
				OFFSET -2.542530 -6.985550 0.000000
				CHANNELS 3 Zrotation Yrotation Xrotation
				JOINT RightFoot
				{
					OFFSET -2.568260 -7.056230 0.000000
					CHANNELS 3 Zrotation Yrotation Xrotation
					JOINT RightToeBase
					{
						OFFSET -0.164730 -0.452590 2.363150
						CHANNELS 3 Zrotation Yrotation Xrotation
						End Site
						{
							OFFSET 0.000000 0.000000 0.000000
						}
					}
				}
			}
		}
	}
}
MOTION
Frames: 11
Frame Time: 0.008333
0.069209 16.326824 0.516325 33.133076 77.452782 55.681400 -7.336108 -0.550904 -0.549634 -14.182112 -6.842425 -49.023713 -2.341208 1.739613 35.232040 0.225713 -0.072630 -3.082273 0.166600 -0.000000 -31.691300 13.144042 -0.971182 -4.117206 0.969493 -6.101661 -17.182958 -0.623375 -4.151626 54.531885 -0.036384 12.410467 18.233556 5.563400 -0.000000 -76.186900
0.214552 16.299756 0.555847 33.573738 77.070064 55.714220 -7.248003 -0.526684 -0.833791 -14.635686 -6.801162 -48.483647 -2.275052 1.840969 37.024578 0.366520 0.562940 -4.613099 0.157200 0.000000 -31.896000 13.320282 -0.826525 -4.295492 0.502501 -6.313596 -17.459853 -0.788118 -4.282777 56.410358 -0.229425 11.443407 19.645518 5.492199 -0.000000 -72.984800
0.360324 16.285032 0.593507 33.716307 76.663903 55.489837 -7.171541 -0.492574 -1.080690 -15.040613 -6.722121 -47.768006 -2.245651 1.898660 38.321175 0.508172 1.181910 -6.161746 0.112300 0.000000 -32.591300 13.468233 -0.683859 -4.446393 0.122236 -6.461977 -17.828637 -0.942692 -4.403459 58.212677 -0.434195 10.079283 20.796537 5.146899 -0.000000 -69.648400
0.507491 16.281956 0.629375 33.598840 76.248031 55.055366 -7.109386 -0.449727 -1.281454 -15.382088 -6.620926 -46.914513 -2.244852 1.917819 39.151723 0.647124 1.770914 -7.637442 0.036900 -0.000000 -33.594300 13.586930 -0.547258 -4.568924 -0.159940 -6.567890 -18.300354 -1.088829 -4.514052 59.931315 -0.650248 8.288922 21.594433 4.497400 -0.000000 -66.392800
0.656749 16.289663 0.663839 33.274922 75.835408 54.470092 -7.063644 -0.399475 -1.428918 -15.649274 -6.515500 -45.958834 -2.263445 1.903318 39.557377 0.779543 2.323534 -8.956064 -0.058300 0.000000 -34.706000 13.676362 -0.419629 -4.663653 -0.337719 -6.653643 -18.879633 -1.228280 -4.614865 61.558455 -0.877165 6.087089 21.962191 3.556000 0.000000 -63.339000
0.808461 16.307047 0.697433 32.807180 75.439629 53.800322 -7.035437 -0.343161 -1.519361 -15.837132 -6.424396 -44.933562 -2.292355 1.860163 39.587987 0.901681 2.839304 -10.048471 -0.159900 0.000000 -35.745300 13.737474 -0.302070 -4.733778 -0.411255 -6.742103 -19.566900 -1.361806 -4.706631 63.086127 -1.113407 3.540625 21.841383 2.383400 -0.000001 -60.493500
0.962575 16.333029 0.730816 32.266090 75.072712 53.116063 -7.024806 -0.281125 -1.551349 -15.948164 -6.364603 -43.867339 -2.323930 1.793559 39.297721 1.010344 3.321318 -10.866965 -0.254200 -0.000001 -36.580500 13.772254 -0.194639 -4.783277 -0.387694 -6.855836 -20.358806 -1.488715 -4.790249 64.504840 -1.355281 0.768349 21.199806 1.084800 -0.000001 -57.767800
1.118720 16.366427 0.764679 31.717450 74.746526 52.484910 -7.029952 -0.213890 -1.528702 -15.990167 -6.349483 -42.786097 -2.352563 1.708948 38.744053 1.103362 3.773350 -11.390528 -0.329600 -0.000000 -37.141800 13.783809 -0.095628 -4.818843 -0.279087 -7.014884 -21.250622 -1.606551 -4.867166 65.804235 -1.596350 -2.071202 20.040407 -0.206600 0.000001 -55.031499
1.276367 16.406274 0.799835 31.230001 74.468888 51.969801 -7.048762 -0.139922 -1.454276 -15.978308 -6.387121 -41.708431 -2.375498 1.611260 37.978302 1.179820 4.198198 -11.622717 -0.378100 0.000000 -37.421800 13.775541 -0.004017 -4.843440 -0.103948 -7.235441 -22.234095 -1.711489 -4.937850 66.970483 -1.827492 -4.800883 18.409526 -1.354500 -0.000000 -52.160900
1.434207 16.451816 0.836383 30.803294 74.244160 51.569380 -7.082113 -0.062950 -1.347253 -15.916312 -6.458745 -40.647945 -2.392460 1.506844 37.052652 1.238541 4.587652 -11.594058 -0.396000 0.000000 -37.459700 13.746040 0.084378 -4.868171 0.133049 -7.513028 -23.291667 -1.798746 -5.002489 67.988691 -2.038353 -7.259840 16.403608 -2.253000 -0.000000 -49.124200
1.590665 16.502739 0.874878 30.383791 74.069363 51.210016 -7.129707 0.014530 -1.223064 -15.809759 -6.505146 -39.606638 -2.405307 1.398222 36.008747 1.277015 4.918688 -11.348297 -0.382900 -0.000000 -37.337900 13.699741 0.161228 -4.881478 0.433120 -7.807517 -24.403683 -1.863734 -5.060590 68.844332 -2.219286 -9.327776 14.157566 -2.848400 0.000001 -45.971100
